<?xml version="1.0" encoding="UTF-8"?>
<!DOCTYPE svg PUBLIC "-//W3C//DTD SVG 1.1//EN" "http://www.w3.org/Graphics/SVG/1.1/DTD/svg11.dtd">
<!-- Creator: CorelDRAW 2020 (64-Bit) -->
<svg xmlns="http://www.w3.org/2000/svg" xml:space="preserve" width="100%" height="100%" version="1.1" style="shape-rendering:geometricPrecision; text-rendering:geometricPrecision; image-rendering:optimizeQuality; fill-rule:evenodd; clip-rule:evenodd"
viewBox="0 0 6222.72 1325.04"
 xmlns:xlink="http://www.w3.org/1999/xlink"
 xmlns:xodm="http://www.corel.com/coreldraw/odm/2003">
 <defs>
  <style type="text/css">
   <![CDATA[
    .fil2 {fill:#0D2B36}
    .fil3 {fill:#B07A4C}
    .fil1 {fill:#0D2B36;fill-rule:nonzero}
    .fil0 {fill:#B07A4C;fill-rule:nonzero}
   ]]>
  </style>
 </defs>
 <g id="Layer_x0020_1">
  <metadata id="CorelCorpID_0Corel-Layer"/>
  <g id="_1971331209296">
   <polygon class="fil0" points="-0,670.07 -0,154.63 354.18,154.63 354.18,241.74 104.39,241.74 104.39,364.12 320.35,364.12 320.35,451.23 104.39,451.23 104.39,670.07 "/>
   <path class="fil1" d="M959.61 670.07l0 -515.44 219.2 0c55.07,0 95.14,4.68 120.1,13.92 25.07,9.24 44.99,25.67 59.99,49.31 15,23.75 22.56,50.75 22.56,81.22 0,38.76 -11.28,70.67 -33.95,95.87 -22.68,25.19 -56.51,41.03 -101.62,47.63 22.44,13.08 40.91,27.48 55.43,43.2 14.63,15.72 34.31,43.67 59.03,83.74l62.87 100.55 -124.42 0 -74.63 -112.54c-26.75,-39.95 -45.11,-65.15 -55.07,-75.59 -9.84,-10.32 -20.28,-17.52 -31.31,-21.35 -11.16,-3.84 -28.68,-5.76 -52.67,-5.76l-21.12 0 0 215.25 -104.38 0zm104.38 -297.31l77.03 0c49.91,0 80.98,-2.16 93.46,-6.36 12.35,-4.2 22.2,-11.52 29.15,-21.84 7.08,-10.31 10.56,-23.28 10.56,-38.75 0,-17.4 -4.67,-31.31 -13.91,-42.11 -9.24,-10.68 -22.32,-17.4 -39.12,-20.15 -8.52,-1.2 -33.83,-1.8 -75.94,-1.8l-81.23 0 0 131.02z"/>
   <polygon class="fil1" points="1479.5,670.07 1479.5,154.63 1580.52,154.63 1792.65,500.06 1792.65,154.63 1889.11,154.63 1889.11,670.07 1784.85,670.07 1575.96,331.25 1575.96,670.07 "/>
   <polygon class="fil1" points="1995.77,670.07 1995.77,154.63 2100.16,154.63 2100.16,670.07 "/>
   <polygon class="fil1" points="2315.28,670.07 2315.28,243.07 2419.67,243.07 2419.67,670.07 "/>
   <path class="fil1" d="M2639.11 154.63l104.39 0 0 279.32c0,44.39 1.31,73.07 3.84,86.15 4.44,21.12 14.87,38.15 31.44,50.87 16.67,12.84 39.35,19.2 68.15,19.2 29.15,0 51.23,-6 66.11,-18.11 14.87,-12.12 23.76,-26.88 26.76,-44.52 3,-17.64 4.56,-46.79 4.56,-87.58l0 -285.32 104.39 0 0 271.04c0,61.91 -2.76,105.7 -8.4,131.26 -5.64,25.55 -15.96,47.15 -31.07,64.79 -15,17.64 -35.15,31.56 -60.35,42 -25.31,10.44 -58.19,15.72 -98.86,15.72 -49.07,0 -86.27,-5.64 -111.58,-17.04 -25.32,-11.4 -45.36,-26.15 -60.11,-44.39 -14.76,-18.24 -24.35,-37.2 -29.04,-57.23 -6.83,-29.52 -10.2,-73.19 -10.2,-130.9l0 -275.24z"/>
   <path class="fil1" d="M3159 670.07l0 -515.44 219.2 0c55.07,0 95.14,4.68 120.1,13.92 25.07,9.24 44.99,25.67 59.99,49.31 15,23.75 22.56,50.75 22.56,81.22 0,38.76 -11.28,70.67 -33.95,95.87 -22.68,25.19 -56.51,41.03 -101.62,47.63 22.44,13.08 40.91,27.48 55.43,43.2 14.64,15.72 34.31,43.67 59.03,83.74l62.87 100.55 -124.42 0 -74.63 -112.54c-26.75,-39.95 -45.11,-65.15 -55.07,-75.59 -9.83,-10.32 -20.28,-17.52 -31.31,-21.35 -11.16,-3.84 -28.68,-5.76 -52.67,-5.76l-21.11 0 0 215.25 -104.39 0zm104.39 -297.31l77.03 0c49.91,0 80.98,-2.16 93.46,-6.36 12.35,-4.2 22.2,-11.52 29.15,-21.84 7.08,-10.31 10.56,-23.28 10.56,-38.75 0,-17.4 -4.67,-31.31 -13.91,-42.11 -9.24,-10.68 -22.32,-17.4 -39.12,-20.15 -8.52,-1.2 -33.83,-1.8 -75.94,-1.8l-81.22 0 0 131.02z"/>
   <polygon class="fil1" points="3678.88,670.07 3678.88,154.63 4060.42,154.63 4060.42,241.74 3783.26,241.74 3783.26,356.2 4040.98,356.2 4040.98,443.31 3783.26,443.31 3783.26,582.97 4070.49,582.97 4070.49,670.07 "/>
   <polygon class="fil1" points="4229.83,670.07 4108.65,154.63 4215.91,154.63 4292.58,508.7 4386.65,154.63 4510.71,154.63 4600.7,514.7 4679.16,154.63 4783.91,154.63 4659.72,670.07 4548.26,670.07 4446.64,284.69 4344.29,670.07 "/>
   <path class="fil1" d="M5263.11 670.07l-112.42 0 -44.52 -117.34 -206.73 0 -42.83 117.34 -110.39 0 200.13 -515.44 110.26 0 206.49 515.44zm-190.77 -204.45l-71.63 -190.77 -69.59 190.77 141.22 0z"/>
   <polygon class="fil1" points="5321.54,670.07 5321.54,158.95 5425.93,158.95 5425.93,582.97 5684.36,582.97 5684.36,670.07 "/>
   <path class="fil1" d="M6222.72 670.07l-112.42 0 -44.52 -117.34 -206.73 0 -42.83 117.34 -110.39 0 200.13 -515.44 110.26 0 206.49 515.44zm-190.77 -204.45l-71.63 -190.77 -69.59 190.77 141.22 0z"/>
   <path class="fil0" d="M5181.4 1325.04l-112.13 0 -44.39 -117.04 -206.2 0 -42.72 117.04 -110.1 0 199.61 -514.11 109.98 0 205.96 514.11zm-190.28 -203.92l-71.44 -190.28 -69.41 190.28 140.85 0z"/>
   <polygon class="fil0" points="5238.25,1325.04 5238.25,810.93 5342.36,810.93 5342.36,1038.67 5552.15,810.93 5691.69,810.93 5497.7,1011.14 5701.74,1325.04 5567.47,1325.04 5426.02,1083.66 5342.36,1169.59 5342.36,1325.04 "/>
   <path class="fil0" d="M6218.48 1325.04l-112.13 0 -44.4 -117.04 -206.2 0 -42.72 117.04 -110.1 0 199.61 -514.11 109.98 0 205.96 514.11zm-190.28 -203.92l-71.44 -190.28 -69.41 190.28 140.85 0z"/>
   <polygon class="fil0" points="2255.7,0 2478.53,0 2589.93,243.07 2144.29,243.07 "/>
   <polygon class="fil2" points="415.6,811.91 495.78,567.15 582.7,583.41 523.74,808.22 "/>
   <polygon class="fil2" points="862.51,811.91 782.33,567.15 695.41,583.41 754.37,808.22 "/>
   <path class="fil3" d="M205.66 289.18c13.62,0 24.66,11.04 24.66,24.66 0,13.62 -11.04,24.66 -24.66,24.66 -13.62,0 -24.66,-11.04 -24.66,-24.66 0,-13.62 11.04,-24.66 24.66,-24.66z"/>
   <path class="fil3" d="M205.66 515.36c13.62,0 24.66,11.04 24.66,24.66 0,13.62 -11.04,24.66 -24.66,24.66 -13.62,0 -24.66,-11.04 -24.66,-24.66 0,-13.62 11.04,-24.66 24.66,-24.66z"/>
   <g>
    <polygon class="fil3" points="4305.33,1194.54 4305.28,1325.04 4201.17,1325.04 4201.17,810.93 4305.28,810.93 4305.28,1038.67 4515.06,810.93 4654.6,810.93 4460.61,1011.14 4664.66,1325.04 4453.97,1325.04 4453.79,1324.7 4453.79,1194.54 4379.56,1074.61 "/>
    <polygon class="fil1" points="4338.42,1325.04 4420.7,1325.04 4420.7,1252.7 4379.56,1186.24 4338.42,1252.7 "/>
   </g>
   <path class="fil0" d="M439.73 154.63l104.39 0 0 279.32c0,44.39 1.31,73.07 3.83,86.15 4.44,21.12 14.88,38.15 31.44,50.87 16.68,12.84 39.35,19.2 68.15,19.2 29.15,0 51.23,-6 66.11,-18.11 14.87,-12.12 23.76,-26.88 26.76,-44.52 3,-17.64 4.56,-46.79 4.56,-87.58l0 -285.32 104.39 0 0 271.04c0,61.91 -2.76,105.7 -8.4,131.26 -5.64,25.55 -15.96,47.15 -31.07,64.79 -15,17.64 -35.16,31.56 -60.35,42 -25.31,10.44 -58.19,15.72 -98.86,15.72 -49.07,0 -86.27,-5.64 -111.58,-17.04 -25.32,-11.4 -45.36,-26.15 -60.11,-44.39 -14.76,-18.24 -24.35,-37.2 -29.04,-57.23 -6.84,-29.52 -10.2,-73.19 -10.2,-130.9l0 -275.24z"/>
  </g>
 </g>
</svg>
