<?xml version="1.0" encoding="UTF-8"?>
<!DOCTYPE svg PUBLIC "-//W3C//DTD SVG 1.1//EN" "http://www.w3.org/Graphics/SVG/1.1/DTD/svg11.dtd">
<!-- Creator: CorelDRAW 2020 (64-Bit) -->
<svg xmlns="http://www.w3.org/2000/svg" xml:space="preserve" width="124px" height="26px" version="1.1" style="shape-rendering:geometricPrecision; text-rendering:geometricPrecision; image-rendering:optimizeQuality; fill-rule:evenodd; clip-rule:evenodd"
viewBox="0 0 3.28 0.7"
 xmlns:xlink="http://www.w3.org/1999/xlink"
 xmlns:xodm="http://www.corel.com/coreldraw/odm/2003">
 <defs>
  <style type="text/css">
   <![CDATA[
    .fil2 {fill:#0D2B36}
    .fil3 {fill:#B07A4C}
    .fil1 {fill:#0D2B36;fill-rule:nonzero}
    .fil0 {fill:#B07A4C;fill-rule:nonzero}
   ]]>
  </style>
 </defs>
 <g id="Layer_x0020_1">
  <metadata id="CorelCorpID_0Corel-Layer"/>
  <g id="_1971331273648">
   <polygon class="fil0" points="0,0.35 0,0.08 0.19,0.08 0.19,0.13 0.06,0.13 0.06,0.19 0.17,0.19 0.17,0.24 0.06,0.24 0.06,0.35 "/>
   <path class="fil1" d="M0.51 0.35l0 -0.27 0.11 0c0.03,0 0.05,0 0.06,0.01 0.02,0 0.03,0.01 0.04,0.02 0,0.02 0.01,0.03 0.01,0.05 0,0.02 -0.01,0.03 -0.02,0.05 -0.01,0.01 -0.03,0.02 -0.05,0.02 0.01,0.01 0.02,0.02 0.03,0.03 0,0 0.01,0.02 0.03,0.04l0.03 0.05 -0.07 0 -0.04 -0.06c-0.01,-0.02 -0.02,-0.03 -0.02,-0.04 -0.01,0 -0.01,-0.01 -0.02,-0.01 -0.01,0 -0.02,0 -0.03,0l-0.01 0 0 0.11 -0.05 0zm0.05 -0.15l0.04 0c0.03,0 0.04,0 0.05,-0.01 0.01,0 0.01,0 0.02,-0.01 0,0 0,-0.01 0,-0.02 0,-0.01 0,-0.02 -0.01,-0.02 0,-0.01 -0.01,-0.01 -0.02,-0.01 0,0 -0.01,0 -0.04,0l-0.04 0 0 0.07z"/>
   <polygon class="fil1" points="0.78,0.35 0.78,0.08 0.83,0.08 0.94,0.26 0.94,0.08 0.99,0.08 0.99,0.35 0.94,0.35 0.83,0.17 0.83,0.35 "/>
   <polygon class="fil1" points="1.05,0.35 1.05,0.08 1.11,0.08 1.11,0.35 "/>
   <polygon class="fil1" points="1.22,0.35 1.22,0.13 1.27,0.13 1.27,0.35 "/>
   <path class="fil1" d="M1.39 0.08l0.05 0 0 0.15c0,0.02 0.01,0.04 0.01,0.04 0,0.01 0,0.02 0.01,0.03 0.01,0.01 0.02,0.01 0.04,0.01 0.01,0 0.03,0 0.03,-0.01 0.01,-0.01 0.02,-0.01 0.02,-0.02 0,-0.01 0,-0.03 0,-0.05l0 -0.15 0.06 0 0 0.14c0,0.04 -0.01,0.06 -0.01,0.07 0,0.02 -0.01,0.03 -0.02,0.04 0,0.01 -0.01,0.01 -0.03,0.02 -0.01,0.01 -0.03,0.01 -0.05,0.01 -0.02,0 -0.04,-0.01 -0.06,-0.01 -0.01,-0.01 -0.02,-0.01 -0.03,-0.02 -0.01,-0.01 -0.01,-0.02 -0.01,-0.03 -0.01,-0.02 -0.01,-0.04 -0.01,-0.07l0 -0.15z"/>
   <path class="fil1" d="M1.66 0.35l0 -0.27 0.12 0c0.03,0 0.05,0 0.06,0.01 0.02,0 0.03,0.01 0.03,0.02 0.01,0.02 0.02,0.03 0.02,0.05 0,0.02 -0.01,0.03 -0.02,0.05 -0.01,0.01 -0.03,0.02 -0.06,0.02 0.02,0.01 0.03,0.02 0.03,0.03 0.01,0 0.02,0.02 0.03,0.04l0.04 0.05 -0.07 0 -0.04 -0.06c-0.01,-0.02 -0.02,-0.03 -0.03,-0.04 0,0 -0.01,-0.01 -0.01,-0.01 -0.01,0 -0.02,0 -0.03,0l-0.01 0 0 0.11 -0.06 0zm0.06 -0.15l0.04 0c0.03,0 0.04,0 0.05,-0.01 0,0 0.01,0 0.01,-0.01 0.01,0 0.01,-0.01 0.01,-0.02 0,-0.01 0,-0.02 -0.01,-0.02 0,-0.01 -0.01,-0.01 -0.02,-0.01 0,0 -0.02,0 -0.04,0l-0.04 0 0 0.07z"/>
   <polygon class="fil1" points="1.94,0.35 1.94,0.08 2.14,0.08 2.14,0.13 1.99,0.13 1.99,0.19 2.13,0.19 2.13,0.23 1.99,0.23 1.99,0.31 2.14,0.31 2.14,0.35 "/>
   <polygon class="fil1" points="2.23,0.35 2.16,0.08 2.22,0.08 2.26,0.27 2.31,0.08 2.38,0.08 2.42,0.27 2.46,0.08 2.52,0.08 2.45,0.35 2.4,0.35 2.34,0.15 2.29,0.35 "/>
   <path class="fil1" d="M2.77 0.35l-0.06 0 -0.02 -0.06 -0.11 0 -0.02 0.06 -0.06 0 0.11 -0.27 0.05 0 0.11 0.27zm-0.1 -0.1l-0.04 -0.11 -0.03 0.11 0.07 0z"/>
   <polygon class="fil1" points="2.8,0.35 2.8,0.08 2.86,0.08 2.86,0.31 2.99,0.31 2.99,0.35 "/>
   <path class="fil1" d="M3.28 0.35l-0.06 0 -0.03 -0.06 -0.1 0 -0.03 0.06 -0.05 0 0.1 -0.27 0.06 0 0.11 0.27zm-0.1 -0.1l-0.04 -0.11 -0.04 0.11 0.08 0z"/>
   <path class="fil0" d="M2.73 0.7l-0.06 0 -0.02 -0.06 -0.11 0 -0.02 0.06 -0.06 0 0.1 -0.27 0.06 0 0.11 0.27zm-0.1 -0.11l-0.04 -0.1 -0.04 0.1 0.08 0z"/>
   <polygon class="fil0" points="2.76,0.7 2.76,0.43 2.81,0.43 2.81,0.55 2.92,0.43 3,0.43 2.9,0.53 3,0.7 2.93,0.7 2.86,0.57 2.81,0.62 2.81,0.7 "/>
   <path class="fil0" d="M3.27 0.7l-0.05 0 -0.03 -0.06 -0.11 0 -0.02 0.06 -0.06 0 0.11 -0.27 0.06 0 0.1 0.27zm-0.1 -0.11l-0.03 -0.1 -0.04 0.1 0.07 0z"/>
   <polygon class="fil0" points="1.19,0 1.31,0 1.36,0.13 1.13,0.13 "/>
   <polygon class="fil2" points="0.22,0.43 0.26,0.3 0.31,0.31 0.28,0.43 "/>
   <polygon class="fil2" points="0.45,0.43 0.41,0.3 0.37,0.31 0.4,0.43 "/>
   <path class="fil3" d="M0.11 0.15c0.01,0 0.01,0.01 0.01,0.02 0,0 0,0.01 -0.01,0.01 -0.01,0 -0.01,-0.01 -0.01,-0.01 0,-0.01 0,-0.02 0.01,-0.02z"/>
   <path class="fil3" d="M0.11 0.27c0.01,0 0.01,0.01 0.01,0.01 0,0.01 0,0.02 -0.01,0.02 -0.01,0 -0.01,-0.01 -0.01,-0.02 0,0 0,-0.01 0.01,-0.01z"/>
   <g>
    <polygon class="fil3" points="2.27,0.63 2.27,0.7 2.21,0.7 2.21,0.43 2.27,0.43 2.27,0.55 2.38,0.43 2.45,0.43 2.35,0.53 2.46,0.7 2.35,0.7 2.35,0.7 2.35,0.63 2.31,0.57 "/>
    <polygon class="fil1" points="2.28,0.7 2.33,0.7 2.33,0.66 2.31,0.62 2.28,0.66 "/>
   </g>
   <path class="fil0" d="M0.23 0.08l0.06 0 0 0.15c0,0.02 0,0.04 0,0.04 0,0.01 0.01,0.02 0.02,0.03 0,0.01 0.02,0.01 0.03,0.01 0.02,0 0.03,0 0.04,-0.01 0,-0.01 0.01,-0.01 0.01,-0.02 0,-0.01 0,-0.03 0,-0.05l0 -0.15 0.06 0 0 0.14c0,0.04 0,0.06 -0.01,0.07 0,0.02 -0.01,0.03 -0.01,0.04 -0.01,0.01 -0.02,0.01 -0.04,0.02 -0.01,0.01 -0.03,0.01 -0.05,0.01 -0.02,0 -0.04,-0.01 -0.06,-0.01 -0.01,-0.01 -0.02,-0.01 -0.03,-0.02 -0.01,-0.01 -0.01,-0.02 -0.01,-0.03 -0.01,-0.02 -0.01,-0.04 -0.01,-0.07l0 -0.15z"/>
  </g>
 </g>
</svg>
