<?xml version="1.0" encoding="UTF-8"?>
<!DOCTYPE svg PUBLIC "-//W3C//DTD SVG 1.1//EN" "http://www.w3.org/Graphics/SVG/1.1/DTD/svg11.dtd">
<!-- Creator: CorelDRAW 2020 (64-Bit) -->
<svg xmlns="http://www.w3.org/2000/svg" xml:space="preserve" width="1920px" height="1280px" version="1.1" style="shape-rendering:geometricPrecision; text-rendering:geometricPrecision; image-rendering:optimizeQuality; fill-rule:evenodd; clip-rule:evenodd"
viewBox="0 0 1920 1280"
 xmlns:xlink="http://www.w3.org/1999/xlink"
 xmlns:xodm="http://www.corel.com/coreldraw/odm/2003">
 <defs>
  <style type="text/css">
   <![CDATA[
    .fil2 {fill:#0D2B36}
    .fil3 {fill:#B07A4C}
    .fil1 {fill:#0D2B36;fill-rule:nonzero}
    .fil0 {fill:#B07A4C;fill-rule:nonzero}
   ]]>
  </style>
 </defs>
 <g id="Layer_x0020_1">
  <metadata id="CorelCorpID_0Corel-Layer"/>
  <g id="_1971330080496">
   <polygon class="fil0" points="26.59,642.26 26.59,487.63 132.85,487.63 132.85,513.76 57.91,513.76 57.91,550.48 122.7,550.48 122.7,576.61 57.91,576.61 57.91,642.26 "/>
   <path class="fil1" d="M314.48 642.26l0 -154.63 65.76 0c16.52,0 28.54,1.41 36.03,4.18 7.52,2.77 13.5,7.7 17.99,14.79 4.5,7.13 6.77,15.23 6.77,24.37 0,11.63 -3.38,21.2 -10.19,28.76 -6.8,7.56 -16.95,12.31 -30.48,14.29 6.73,3.92 12.27,8.24 16.63,12.96 4.39,4.71 10.29,13.1 17.71,25.12l18.86 30.16 -37.33 0 -22.39 -33.76c-8.02,-11.98 -13.53,-19.54 -16.52,-22.67 -2.95,-3.1 -6.08,-5.26 -9.39,-6.41 -3.35,-1.15 -8.61,-1.73 -15.8,-1.73l-6.34 0 0 64.57 -31.31 0zm31.31 -89.19l23.11 0c14.97,0 24.29,-0.65 28.04,-1.91 3.71,-1.26 6.66,-3.45 8.75,-6.55 2.12,-3.09 3.16,-6.98 3.16,-11.62 0,-5.22 -1.4,-9.4 -4.17,-12.64 -2.77,-3.2 -6.7,-5.22 -11.74,-6.04 -2.55,-0.37 -10.15,-0.55 -22.78,-0.55l-24.37 0 0 39.31z"/>
   <polygon class="fil1" points="470.44,642.26 470.44,487.63 500.75,487.63 564.39,591.26 564.39,487.63 593.32,487.63 593.32,642.26 562.05,642.26 499.38,540.62 499.38,642.26 "/>
   <polygon class="fil1" points="625.32,642.26 625.32,487.63 656.64,487.63 656.64,642.26 "/>
   <polygon class="fil1" points="721.18,642.26 721.18,514.16 752.49,514.16 752.49,642.26 "/>
   <path class="fil1" d="M818.33 487.63l31.31 0 0 83.8c0,13.32 0.4,21.92 1.15,25.84 1.33,6.34 4.47,11.45 9.43,15.26 5.01,3.85 11.81,5.76 20.45,5.76 8.74,0 15.37,-1.8 19.83,-5.43 4.46,-3.64 7.13,-8.07 8.03,-13.36 0.9,-5.29 1.37,-14.03 1.37,-26.27l0 -85.6 31.31 0 0 81.31c0,18.58 -0.83,31.72 -2.52,39.38 -1.69,7.67 -4.79,14.15 -9.32,19.44 -4.5,5.29 -10.55,9.47 -18.11,12.6 -7.59,3.13 -17.45,4.71 -29.66,4.71 -14.72,0 -25.88,-1.69 -33.47,-5.11 -7.6,-3.42 -13.61,-7.85 -18.03,-13.32 -4.43,-5.47 -7.31,-11.16 -8.72,-17.17 -2.05,-8.85 -3.05,-21.95 -3.05,-39.27l0 -82.57z"/>
   <path class="fil1" d="M974.29 642.26l0 -154.63 65.76 0c16.52,0 28.54,1.41 36.03,4.18 7.52,2.77 13.5,7.7 18,14.79 4.5,7.13 6.77,15.23 6.77,24.37 0,11.63 -3.39,21.2 -10.19,28.76 -6.8,7.56 -16.95,12.31 -30.49,14.29 6.73,3.92 12.28,8.24 16.63,12.96 4.39,4.71 10.3,13.1 17.71,25.12l18.86 30.16 -37.32 0 -22.39 -33.76c-8.03,-11.98 -13.54,-19.54 -16.52,-22.67 -2.95,-3.1 -6.09,-5.26 -9.4,-6.41 -3.35,-1.15 -8.6,-1.73 -15.8,-1.73l-6.33 0 0 64.57 -31.32 0zm31.32 -89.19l23.1 0c14.98,0 24.3,-0.65 28.04,-1.91 3.71,-1.26 6.66,-3.45 8.75,-6.55 2.12,-3.09 3.17,-6.98 3.17,-11.62 0,-5.22 -1.41,-9.4 -4.18,-12.64 -2.77,-3.2 -6.69,-5.22 -11.73,-6.04 -2.56,-0.37 -10.15,-0.55 -22.79,-0.55l-24.36 0 0 39.31z"/>
   <polygon class="fil1" points="1130.25,642.26 1130.25,487.63 1244.72,487.63 1244.72,513.76 1161.57,513.76 1161.57,548.1 1238.89,548.1 1238.89,574.24 1161.57,574.24 1161.57,616.13 1247.74,616.13 1247.74,642.26 "/>
   <polygon class="fil1" points="1295.54,642.26 1259.19,487.63 1291.37,487.63 1314.37,593.85 1342.59,487.63 1379.8,487.63 1406.8,595.65 1430.34,487.63 1461.76,487.63 1424.51,642.26 1391.07,642.26 1360.58,526.65 1329.88,642.26 "/>
   <path class="fil1" d="M1605.52 642.26l-33.72 0 -13.36 -35.2 -62.02 0 -12.84 35.2 -33.12 0 60.04 -154.63 33.08 0 61.94 154.63zm-57.23 -61.33l-21.49 -57.23 -20.87 57.23 42.36 0z"/>
   <polygon class="fil1" points="1623.05,642.26 1623.05,488.93 1654.37,488.93 1654.37,616.13 1731.9,616.13 1731.9,642.26 "/>
   <path class="fil1" d="M1893.41 642.26l-33.73 0 -13.35 -35.2 -62.02 0 -12.85 35.2 -33.12 0 60.04 -154.63 33.08 0 61.95 154.63zm-57.23 -61.33l-21.49 -57.23 -20.88 57.23 42.37 0z"/>
   <path class="fil0" d="M1581.01 838.76l-33.64 0 -13.32 -35.12 -61.86 0 -12.81 35.12 -33.03 0 59.88 -154.24 32.99 0 61.79 154.24zm-57.08 -61.18l-21.43 -57.08 -20.83 57.08 42.26 0z"/>
   <polygon class="fil0" points="1598.07,838.76 1598.07,684.52 1629.3,684.52 1629.3,752.84 1692.24,684.52 1734.1,684.52 1675.9,744.58 1737.11,838.76 1696.83,838.76 1654.4,766.34 1629.3,792.12 1629.3,838.76 "/>
   <path class="fil0" d="M1892.14 838.76l-33.64 0 -13.32 -35.12 -61.86 0 -12.82 35.12 -33.03 0 59.89 -154.24 32.99 0 61.79 154.24zm-57.09 -61.18l-21.43 -57.08 -20.82 57.08 42.25 0z"/>
   <polygon class="fil0" points="703.3,441.24 770.15,441.24 803.57,514.16 669.88,514.16 "/>
   <polygon class="fil2" points="151.27,684.81 175.33,611.39 201.4,616.27 183.71,683.71 "/>
   <polygon class="fil2" points="285.34,684.81 261.29,611.39 235.21,616.27 252.9,683.71 "/>
   <path class="fil3" d="M88.29 528c4.08,0 7.4,3.31 7.4,7.39 0,4.09 -3.32,7.4 -7.4,7.4 -4.09,0 -7.4,-3.31 -7.4,-7.4 0,-4.08 3.31,-7.39 7.4,-7.39z"/>
   <path class="fil3" d="M88.29 595.85c4.08,0 7.4,3.31 7.4,7.4 0,4.08 -3.32,7.4 -7.4,7.4 -4.09,0 -7.4,-3.32 -7.4,-7.4 0,-4.09 3.31,-7.4 7.4,-7.4z"/>
   <g>
    <polygon class="fil3" points="1318.19,799.6 1318.17,838.76 1286.94,838.76 1286.94,684.52 1318.17,684.52 1318.17,752.84 1381.11,684.52 1422.97,684.52 1364.78,744.58 1425.99,838.76 1362.78,838.76 1362.73,838.65 1362.73,799.6 1340.46,763.63 "/>
    <polygon class="fil1" points="1328.12,838.76 1352.8,838.76 1352.8,817.05 1340.46,797.11 1328.12,817.05 "/>
   </g>
   <path class="fil0" d="M158.51 487.63l31.32 0 0 83.8c0,13.32 0.39,21.92 1.15,25.84 1.33,6.34 4.46,11.45 9.43,15.26 5,3.85 11.8,5.76 20.44,5.76 8.75,0 15.37,-1.8 19.84,-5.43 4.46,-3.64 7.12,-8.07 8.02,-13.36 0.9,-5.29 1.37,-14.03 1.37,-26.27l0 -85.6 31.32 0 0 81.31c0,18.58 -0.83,31.72 -2.52,39.38 -1.7,7.67 -4.79,14.15 -9.33,19.44 -4.5,5.29 -10.54,9.47 -18.1,12.6 -7.6,3.13 -17.46,4.71 -29.66,4.71 -14.72,0 -25.88,-1.69 -33.48,-5.11 -7.59,-3.42 -13.6,-7.85 -18.03,-13.32 -4.43,-5.47 -7.31,-11.16 -8.71,-17.17 -2.05,-8.85 -3.06,-21.95 -3.06,-39.27l0 -82.57z"/>
  </g>
 </g>
</svg>
